<svg width="256" height="256" viewBox="0 0 256 256" fill="none" xmlns="http://www.w3.org/2000/svg">
<rect width="256" height="256" fill="black"/>
<path d="M94.4637 121.26L94.4785 121.235L94.4928 121.209L97.3616 116.076C97.3623 116.075 97.3629 116.073 97.3636 116.072C99.2743 112.675 101.747 111.329 103.837 111.329C105.926 111.329 108.399 112.675 110.31 116.073C110.311 116.074 110.311 116.075 110.312 116.076L113.174 121.198C113.176 121.201 113.177 121.203 113.179 121.206C116.18 126.606 124.755 124.35 124.231 117.862C123.674 110.774 120.958 104.683 117.275 100.314C113.663 96.03 108.784 93.0484 103.806 93.0484C98.8285 93.0484 93.9501 96.03 90.338 100.314C86.6544 104.683 83.9389 110.774 83.3821 117.862C83.1242 121.043 85.2515 123.285 87.5907 123.98C89.917 124.671 92.8881 123.972 94.4637 121.26ZM90.5867 157.511L90.5935 157.519C99.8765 168.659 113.502 175.048 128 175.048C142.498 175.048 156.123 168.659 165.407 157.519C167.043 155.555 167.66 153.247 167.315 151.018C166.983 148.878 165.808 147.065 164.315 145.818C162.821 144.57 160.827 143.737 158.66 143.793C156.404 143.851 154.242 144.87 152.598 146.828L152.593 146.834C146.481 154.146 137.544 158.341 128 158.341C118.45 158.341 109.518 154.172 103.411 146.839L103.402 146.828C101.76 144.872 99.6004 143.851 97.3472 143.789C95.1807 143.729 93.1852 144.557 91.6886 145.803C90.192 147.05 89.0163 148.863 88.685 151.006C88.3405 153.235 88.957 155.543 90.5867 157.511ZM142.846 121.216L142.85 121.209L145.718 116.076C145.719 116.075 145.719 116.075 145.719 116.074C147.63 112.675 150.104 111.329 152.194 111.329C154.283 111.329 156.756 112.675 158.666 116.072C158.667 116.073 158.668 116.074 158.669 116.076L161.531 121.198C161.532 121.2 161.533 121.202 161.534 121.203C164.554 126.643 173.098 124.31 172.651 117.898L172.65 117.883L172.649 117.868C172.093 110.777 169.377 104.685 165.692 100.314C162.08 96.03 157.202 93.0484 152.224 93.0484C147.246 93.0484 142.367 96.03 138.755 100.314C135.072 104.683 132.356 110.774 131.799 117.862C131.27 124.383 139.871 126.514 142.846 121.216ZM56.5 128C56.5 88.5015 88.5015 56.5 128 56.5C167.498 56.5 199.5 88.5015 199.5 128C199.5 167.498 167.498 199.5 128 199.5C88.5015 199.5 56.5 167.498 56.5 128Z" fill="#FFD700" stroke="url(#paint0_linear)" stroke-width="7"/>
<defs>
<linearGradient id="paint0_linear" x1="128" y1="53" x2="128" y2="203" gradientUnits="userSpaceOnUse">
<stop stop-color="#FFB800"/>
<stop offset="1" stop-color="#FFB800" stop-opacity="0"/>
</linearGradient>
</defs>
</svg>
