<svg width="126" height="126" viewBox="0 0 126 126" fill="none" xmlns="http://www.w3.org/2000/svg">
<rect width="126" height="126" rx="63" fill="#1890FF"/>
<rect x="0.5" y="0.5" width="125" height="125" rx="62.5" stroke="white" stroke-opacity="0.1"/>
<path d="M85.6395 59.6429H68.8027V43.5714C68.8027 41.5993 67.1272 40 65.0612 40H61.3197C59.2537 40 57.5782 41.5993 57.5782 43.5714V59.6429H40.7415C38.6755 59.6429 37 61.2422 37 63.2143V66.7857C37 68.7578 38.6755 70.3571 40.7415 70.3571H57.5782V86.4286C57.5782 88.4007 59.2537 90 61.3197 90H65.0612C67.1272 90 68.8027 88.4007 68.8027 86.4286V70.3571H85.6395C87.7055 70.3571 89.3809 68.7578 89.3809 66.7857V63.2143C89.3809 61.2422 87.7055 59.6429 85.6395 59.6429Z" fill="white"/>
</svg>
