<svg width="30" height="40" viewBox="0 0 30 40" fill="none" xmlns="http://www.w3.org/2000/svg">
<path d="M29.3333 11.25C29.3333 7.79687 26.5986 5 23.2222 5C19.8458 5 17.1111 7.79687 17.1111 11.25C17.1111 14.0938 18.9674 16.4922 21.5035 17.25C21.4576 18.5078 21.1826 19.4766 20.6632 20.1328C19.4868 21.6328 16.8972 21.8828 14.1549 22.1406C12.0007 22.3437 9.77014 22.5625 7.94445 23.4609V12.2109C10.4271 11.4141 12.2222 9.04687 12.2222 6.25C12.2222 2.79687 9.4875 0 6.11111 0C2.73472 0 0 2.79687 0 6.25C0 9.04687 1.79514 11.4141 4.27778 12.2109V27.7813C1.79514 28.5859 0 30.9531 0 33.75C0 37.2031 2.73472 40 6.11111 40C9.4875 40 12.2222 37.2031 12.2222 33.75C12.2222 31.0938 10.6028 28.8203 8.31111 27.9219C8.54792 27.5156 8.90694 27.1562 9.44931 26.875C10.6868 26.2344 12.5354 26.0625 14.4986 25.875C17.7222 25.5703 21.3736 25.2187 23.5278 22.4844C24.5972 21.125 25.1396 19.375 25.1778 17.1797C27.5917 16.3359 29.3333 14 29.3333 11.25ZM6.11111 5C6.78333 5 7.33333 5.5625 7.33333 6.25C7.33333 6.9375 6.78333 7.5 6.11111 7.5C5.43889 7.5 4.88889 6.9375 4.88889 6.25C4.88889 5.5625 5.43889 5 6.11111 5ZM6.11111 35C5.43889 35 4.88889 34.4375 4.88889 33.75C4.88889 33.0625 5.43889 32.5 6.11111 32.5C6.78333 32.5 7.33333 33.0625 7.33333 33.75C7.33333 34.4375 6.78333 35 6.11111 35ZM23.2222 10C23.8944 10 24.4444 10.5625 24.4444 11.25C24.4444 11.9375 23.8944 12.5 23.2222 12.5C22.55 12.5 22 11.9375 22 11.25C22 10.5625 22.55 10 23.2222 10Z" fill="#1890FF"/>
</svg>
